<?xml version="1.0" encoding="UTF-8"?>
<!-- Generator: visioncortex VTracer 0.6.12 -->
<svg version="1.1" xmlns="http://www.w3.org/2000/svg" width="400" height="661">
<path d="M0 0 C132 0 264 0 400 0 C400 218.13 400 436.26 400 661 C268 661 136 661 0 661 C0 442.87 0 224.74 0 0 Z " fill="#FFFFFF" transform="translate(0,0)"/>
<path d="M0 0 C0.279 0.254 0.279 0.254 1.691 1.539 C4.288 3.619 7.063 5.2 9.938 6.875 C32.693 20.591 47.386 43.158 54.805 68.344 C59.957 89.292 59.957 89.292 59.75 99.188 C60.327 99.414 60.905 99.641 61.5 99.875 C64.503 101.627 65.936 103.207 67.75 106.188 C68.343 110.857 68.279 113.086 66.25 117.312 C63.75 120.188 63.75 120.188 61.738 121.293 C59.165 122.721 57.569 123.851 55.75 126.188 C55.168 129.518 55.015 132.6 54.971 135.968 C54.457 171.55 37.471 205.994 12.32 230.585 C3.325 239.188 3.325 239.188 0.75 239.188 C1.616 243.21 2.239 244.826 5.656 247.242 C6.846 247.865 8.045 248.471 9.25 249.062 C15.688 252.486 21.32 256.274 26.75 261.188 C27.396 261.755 28.042 262.322 28.707 262.906 C40.184 274.308 42.424 294.748 45.264 309.935 C45.346 310.375 45.346 310.375 45.766 312.602 C45.908 313.387 46.05 314.173 46.196 314.983 C46.75 317.188 46.75 317.188 47.791 319.253 C49.317 322.33 49.092 325.289 49.125 328.688 C49.153 329.997 49.182 331.307 49.211 332.656 C48.75 336.188 48.75 336.188 46.887 338.578 C43.571 341.076 40.909 342.188 36.75 342.188 C36.75 344.168 36.75 346.147 36.75 348.188 C37.946 348.105 39.142 348.022 40.375 347.938 C56.434 348.013 71.08 356.847 82.75 367.188 C83.05 367.447 83.05 367.447 84.57 368.758 C99.09 382.197 106.469 400.293 110.75 419.188 C110.846 419.59 110.846 419.59 111.332 421.625 C112.831 430.814 113.028 440.271 107.75 448.188 C107.09 448.188 106.43 448.188 105.75 448.188 C105.75 448.848 105.75 449.507 105.75 450.188 C83.369 463.71 59.453 470.236 33.375 464.688 C31.494 464.212 29.615 463.722 27.75 463.188 C27.773 464.152 27.796 465.116 27.82 466.109 C27.838 467.373 27.856 468.636 27.875 469.938 C27.898 471.19 27.921 472.443 27.945 473.734 C27.76 477.006 27.302 478.423 25.75 481.188 C25.993 485.322 26.946 488.747 28.438 492.562 C30.121 497.43 29.912 501.494 27.75 506.188 C27.311 506.636 27.311 506.636 25.09 508.906 C23.488 510.757 22.788 511.712 22.592 514.173 C22.867 516.493 23.302 518.72 23.812 521 C24.133 522.688 24.451 524.377 24.766 526.066 C24.933 526.917 25.099 527.768 25.271 528.645 C26.008 532.56 26.561 536.487 27.062 540.438 C27.162 541.115 27.262 541.793 27.365 542.491 C27.961 547.205 27.497 550.775 25.75 555.188 C20.991 560.817 14.702 561.816 7.598 562.484 C4.309 562.624 1.041 562.646 -2.25 562.625 C-3.348 562.645 -4.447 562.665 -5.578 562.686 C-12.977 562.681 -19.651 561.734 -26.25 558.188 C-29.237 553.708 -28.862 549.445 -28.25 544.188 C-27.352 541.957 -27.352 541.957 -26.25 539.875 C-23.224 533.982 -23.743 527.651 -24.25 521.188 C-25.423 517.67 -26.008 517.514 -29.125 515.812 C-32.653 513.692 -34.662 512.112 -36.25 508.188 C-36.838 505.186 -37.234 502.281 -37.279 499.219 C-37.648 490.315 -41.349 482.501 -44.688 474.375 C-45.294 472.874 -45.898 471.372 -46.502 469.869 C-47.609 467.118 -48.723 464.37 -49.845 461.626 C-50.993 458.818 -52.128 456.006 -53.25 453.188 C-53.732 456.166 -54.211 459.145 -54.688 462.125 C-54.755 462.54 -54.755 462.54 -55.096 464.643 C-56.312 472.269 -57.395 479.824 -57.375 487.562 C-57.378 488.56 -57.38 489.558 -57.383 490.586 C-57.25 493.188 -57.25 493.188 -56.25 496.188 C-55.697 500.944 -55.766 504.287 -58.062 508.562 C-60.25 511.188 -60.25 511.188 -61.906 512.363 C-64.087 515.324 -63.283 518.519 -62.938 522 C-62.817 523.531 -62.7 525.062 -62.586 526.594 C-62.526 527.362 -62.467 528.13 -62.405 528.922 C-62.175 532.286 -62.098 535.628 -62.062 539 C-62.048 540.1 -62.034 541.199 -62.02 542.332 C-62.259 545.303 -62.413 546.845 -64.25 549.188 C-71.255 552.362 -79.004 554.548 -86.594 552.579 C-89.756 552.113 -91.694 552.672 -94.738 553.605 C-101.387 555.392 -107.584 555.6 -114.438 555.5 C-115.548 555.503 -116.659 555.506 -117.803 555.51 C-125.576 555.459 -133.374 555.186 -140.25 551.188 C-142.709 546.269 -141.417 540.048 -140.062 534.938 C-138.605 530.586 -137.03 527.959 -133.25 525.188 C-129.329 523.269 -125.31 522.18 -121.062 521.25 C-117.114 520.15 -115.008 519.204 -112.25 516.188 C-111.562 513.875 -111.562 513.875 -112.25 511.188 C-113.671 509.245 -115.193 507.494 -116.84 505.738 C-119.503 502.81 -119.441 500.358 -119.434 496.48 C-119.235 494.005 -118.667 491.827 -118 489.438 C-117.434 487.168 -117.434 487.168 -117.25 485.188 C-119.062 482.75 -119.062 482.75 -121.25 481.188 C-122.502 478.683 -122.364 476.979 -122.348 474.18 C-122.346 473.687 -122.346 473.687 -122.338 471.191 C-122.334 470.675 -122.334 470.675 -122.312 468.062 C-122.308 467.022 -122.303 465.982 -122.299 464.91 C-122.287 462.336 -122.271 459.762 -122.25 457.188 C-123.57 456.858 -124.89 456.527 -126.25 456.188 C-126.897 449.237 -125.009 442.555 -122.25 436.188 C-121.26 435.858 -120.27 435.527 -119.25 435.188 C-119.255 434.259 -119.26 433.33 -119.266 432.374 C-119.283 428.933 -119.295 425.493 -119.305 422.053 C-119.31 420.563 -119.317 419.073 -119.325 417.583 C-119.338 415.443 -119.343 413.304 -119.348 411.164 C-119.353 409.876 -119.358 408.588 -119.364 407.26 C-119.25 404.188 -119.25 404.188 -118.25 402.188 C-119.341 402.139 -120.431 402.09 -121.555 402.039 C-125.591 401.847 -129.624 401.608 -133.657 401.35 C-135.362 401.243 -137.067 401.145 -138.772 401.057 C-154.376 400.205 -154.376 400.205 -157.875 396.375 C-159.059 394.535 -159.059 394.535 -160.25 392.188 C-166.741 379.692 -166.741 379.692 -170.996 378.27 C-173.875 378.125 -173.875 378.125 -176.695 378.199 C-180.51 378.182 -182.474 376.686 -185.25 374.188 C-188.25 369.987 -188.25 369.987 -188.25 367.188 C-188.632 367.084 -188.632 367.084 -190.562 366.562 C-194.188 364.707 -194.826 362.96 -196.25 359.188 C-196.415 357.991 -196.58 356.795 -196.75 355.562 C-197.25 352.188 -197.25 352.188 -198.812 350.312 C-201.103 346.926 -200.788 343.158 -200.25 339.188 C-199.893 338.538 -199.536 337.888 -199.168 337.219 C-197.873 334.353 -198.233 333.169 -199.25 330.188 C-200.749 327.483 -202.458 324.937 -204.188 322.375 C-205.184 320.861 -206.18 319.347 -207.176 317.832 C-208.2 316.284 -209.225 314.736 -210.25 313.188 C-212.144 310.324 -214.017 307.449 -215.875 304.562 C-216.3 303.925 -216.726 303.287 -217.164 302.63 C-219.775 298.55 -221.376 295.173 -221.25 290.188 C-218.969 285.872 -218.969 285.872 -216.25 284.188 C-212.877 283.572 -209.656 283.801 -206.25 284.062 C-197.003 284.692 -197.003 284.692 -193.301 282.211 C-192.624 281.543 -191.947 280.875 -191.25 280.188 C-188.438 279.938 -188.438 279.938 -186.25 280.188 C-186.209 279.115 -186.167 278.043 -186.125 276.938 C-185.25 273.188 -185.25 273.188 -182.625 270.75 C-177.673 268.458 -174.261 268.504 -169.125 270.25 C-165.561 272.652 -163.302 275.42 -161.25 279.188 C-161.25 279.848 -161.25 280.507 -161.25 281.188 C-160.514 281.225 -159.778 281.262 -159.02 281.301 C-149.086 281.97 -149.086 281.97 -145.25 285.188 C-144.92 285.683 -144.92 285.683 -143.25 288.188 C-140.43 288.699 -140.43 288.699 -137.125 288.875 C-136.577 288.908 -136.577 288.908 -133.805 289.074 C-132.962 289.112 -132.119 289.149 -131.25 289.188 C-131.017 288.504 -130.783 287.821 -130.543 287.117 C-128.961 283.532 -126.848 280.472 -124.562 277.312 C-124.12 276.696 -123.677 276.079 -123.221 275.443 C-119.919 270.92 -116.394 266.971 -112.25 263.188 C-113.035 262.873 -113.82 262.558 -114.629 262.234 C-120.42 259.875 -125.918 257.459 -131.25 254.188 C-131.155 255.175 -131.059 256.162 -130.961 257.18 C-130.85 258.461 -130.739 259.742 -130.625 261.062 C-130.509 262.339 -130.393 263.615 -130.273 264.93 C-130.27 265.467 -130.27 265.467 -130.25 268.188 C-130.91 268.848 -131.57 269.507 -132.25 270.188 C-139.157 270.188 -143.361 268.024 -148.25 263.188 C-153.488 256.636 -155.852 249.62 -155.25 241.188 C-154.899 239.991 -154.549 238.795 -154.188 237.562 C-152.37 231.018 -155.634 225.498 -158.094 219.441 C-159.991 214.103 -160.353 209.02 -160.541 203.412 C-160.78 196.374 -161.183 190.052 -163.551 183.363 C-166.011 175.708 -165.373 167.123 -165.25 159.188 C-166.263 158.873 -167.276 158.558 -168.32 158.234 C-169.672 157.803 -171.024 157.37 -172.375 156.938 C-173.04 156.733 -173.705 156.528 -174.391 156.316 C-180.865 154.222 -186.688 151.216 -190.25 145.188 C-191.129 139.33 -190.029 135.675 -187.082 130.605 C-185.25 128.188 -185.25 128.188 -182.574 125.863 C-172.22 116.688 -172.387 106.473 -171.487 93.195 C-170.681 82.973 -167.926 73.543 -164.043 64.113 C-163.25 61.188 -163.25 61.188 -163.93 59.02 C-169.218 51.682 -177.501 41.104 -186.25 38.188 C-186.628 38.759 -187.005 39.33 -187.395 39.918 C-197.55 54.877 -210.109 70.874 -228.25 76.188 C-232.81 76.844 -236.606 77.289 -240.535 74.656 C-241.101 74.172 -241.667 73.687 -242.25 73.188 C-242.333 69.278 -242.008 67.156 -239.566 64.035 C-234.782 59.183 -229.559 54.882 -224.254 50.617 C-220.963 47.956 -217.72 45.246 -214.5 42.5 C-213.92 42.005 -213.339 41.511 -212.741 41.001 C-207.46 36.452 -202.389 31.687 -197.399 26.82 C-190.815 20.517 -190.815 20.517 -186.25 19.188 C-178.638 19.989 -173.965 24.663 -168.938 30 C-168.248 30.699 -167.559 31.399 -166.85 32.119 C-163.902 35.158 -161.17 38.121 -158.895 41.699 C-158.352 42.52 -157.809 43.341 -157.25 44.188 C-156.59 44.188 -155.93 44.188 -155.25 44.188 C-153.876 42.315 -152.577 40.386 -151.312 38.438 C-145.142 29.202 -137.902 21.18 -129.25 14.188 C-129.951 13.528 -130.653 12.868 -131.375 12.188 C-140.231 3.205 -140.231 3.205 -141.375 -3.062 C-141.25 -6.812 -141.25 -6.812 -139.75 -9.375 C-136.95 -10.985 -135.568 -10.937 -132.444 -10.411 C-126.574 -8.809 -121.075 -5.776 -115.611 -3.143 C-108.129 0.293 -108.129 0.293 -104.035 -0.199 C-101.083 -1.909 -98.212 -3.717 -95.348 -5.569 C-91.984 -7.563 -88.459 -8.8 -84.75 -10 C-83.97 -10.254 -83.189 -10.508 -82.385 -10.77 C-57.406 -18.531 -20.469 -18.383 0 0 Z " fill="#1A1A1A" transform="translate(272.25,60.8125)"/>
<path d="M0 0 C23.231 14.569 37.047 36.78 43.249 63.107 C45.22 72.354 46.584 81.718 47.882 91.079 C4.707 125.637 -69.84 129.125 -122.489 123.77 C-140.137 121.736 -157.469 117.731 -173.118 109.079 C-173.118 109.739 -173.118 110.399 -173.118 111.079 C-172.754 111.22 -172.754 111.22 -170.911 111.934 C-168.348 112.984 -165.912 114.164 -163.43 115.391 C-141.188 125.471 -115.578 127.304 -91.493 127.266 C-91.134 127.266 -91.134 127.266 -89.316 127.264 C-75.515 127.233 -61.843 126.598 -48.118 125.079 C-47.044 124.96 -45.971 124.842 -44.865 124.72 C-17.137 121.497 12.088 114.995 36.757 101.516 C37.406 101.164 38.055 100.812 38.723 100.45 C43.092 97.925 45.843 95.106 48.882 91.079 C52.255 92.635 53.632 93.402 54.945 96.954 C54.863 101.056 53.666 102.113 50.882 105.079 C33.695 116.846 13.337 122.959 -6.743 127.579 C-20.931 130.923 -34.537 135.483 -48.179 140.598 C-57.745 144.148 -67.023 146.584 -77.118 148.079 C-77.929 148.207 -78.74 148.335 -79.575 148.468 C-86.825 149.453 -94.19 149.321 -101.493 149.329 C-101.853 149.329 -101.853 149.329 -103.678 149.333 C-117.971 149.327 -131.967 148.126 -146.118 146.079 C-146.936 145.966 -147.755 145.854 -148.598 145.739 C-157.178 144.541 -165.433 142.569 -173.743 140.141 C-174.573 139.9 -175.403 139.659 -176.258 139.411 C-181.329 137.857 -185.691 136.026 -190.118 133.079 C-191.555 130.016 -191.555 130.016 -191.118 126.079 C-188.485 121.362 -185.316 116.872 -181.109 113.439 C-176.463 109.5 -174.598 106.662 -173.821 100.551 C-173.638 98.083 -173.488 95.613 -173.368 93.141 C-173.173 90.544 -172.97 87.948 -172.759 85.352 C-172.66 84.103 -172.561 82.853 -172.46 81.566 C-171.489 71.667 -168.699 62.325 -165.118 53.079 C-162.164 55.864 -159.81 58.467 -157.618 61.891 C-156.387 63.696 -156.387 63.696 -155.118 65.079 C-152.305 65.516 -152.305 65.516 -150.118 65.079 C-148.863 62.128 -149.161 60.948 -150.192 57.836 C-150.725 56.638 -151.257 55.439 -151.805 54.204 C-152.065 53.607 -152.065 53.607 -153.38 50.586 C-155.118 47.079 -155.118 47.079 -157.45 43.946 C-159.118 41.079 -159.118 41.079 -158.552 38.52 C-158.078 37.714 -157.605 36.909 -157.118 36.079 C-156.676 35.263 -156.234 34.447 -155.778 33.606 C-149.549 23.508 -138.696 7.938 -127.118 4.079 C-126.788 4.244 -126.788 4.244 -125.118 5.079 C-126.047 9.284 -127.956 12.845 -129.93 16.641 C-134.683 26.023 -138.022 35.134 -140.368 45.391 C-140.544 46.157 -140.719 46.922 -140.9 47.711 C-141.81 51.91 -142.31 55.754 -142.118 60.079 C-141.968 59.43 -141.817 58.782 -141.662 58.114 C-133.743 24.306 -133.743 24.306 -124.118 11.079 C-123.57 10.295 -123.022 9.511 -122.458 8.704 C-120.118 7.079 -120.118 7.079 -116.317 7.528 C-114.808 7.92 -113.304 8.334 -111.805 8.766 C-104.401 10.711 -97.704 11.497 -90.059 11.415 C-87.118 12.079 -87.118 12.079 -85.145 14.743 C-82.905 22.018 -86.741 29.177 -89.118 36.079 C-87.468 31.789 -85.818 27.499 -84.118 23.079 C-80.276 26.921 -80.276 26.921 -80.118 30.079 C-81.092 32.587 -82.127 34.92 -83.305 37.329 C-85.969 43.061 -88.061 48.684 -89.555 54.829 C-89.719 55.495 -89.882 56.162 -90.05 56.849 C-90.789 60.049 -91.118 62.768 -91.118 66.079 C-90.962 65.536 -90.807 64.993 -90.646 64.433 C-87.656 54.06 -84.633 43.908 -80.118 34.079 C-79.458 34.079 -78.798 34.079 -78.118 34.079 C-74.828 45.126 -71.689 56.083 -69.661 67.438 C-69.118 70.079 -69.118 70.079 -68.118 71.079 C-65.618 71.204 -65.618 71.204 -63.118 71.079 C-61.294 69.255 -61.944 66.469 -61.93 64.016 C-62.059 51.308 -63.945 39.54 -67.529 27.373 C-67.748 26.611 -67.967 25.848 -68.192 25.063 C-68.293 24.726 -68.293 24.726 -68.804 23.023 C-69.298 19.962 -68.601 17.831 -66.946 15.254 C-59.369 6.309 -49.313 -0.425 -38.118 -3.921 C-37.029 -4.277 -35.939 -4.633 -34.817 -5 C-22.692 -8.021 -10.627 -6.366 0 0 Z " fill="#FFFFFF" transform="translate(279.117919921875,72.92138671875)"/>
<path d="M0 0 C2.392 2.392 2.675 3.936 3.5 7.188 C4.348 10.488 5.221 13.752 6.25 17 C7 20 7 20 6 23 C6.222 25.097 6.222 25.097 6.707 27.492 C6.882 28.362 7.056 29.232 7.236 30.129 C7.426 31.035 7.617 31.941 7.812 32.875 C7.991 33.773 8.17 34.672 8.354 35.598 C9.243 39.947 10.296 43.89 12 48 C11.689 50.678 11.202 52.596 10 55 C9.34 55 8.68 55 8 55 C7.835 56.238 7.67 57.475 7.5 58.75 C7.407 59.446 7.314 60.142 7.219 60.859 C7 63 7 63 7 67 C5.812 70.188 5.812 70.188 4 73 C1.312 73.875 1.312 73.875 -1 74 C-1.33 73.34 -1.66 72.68 -2 72 C-2.99 71.67 -3.98 71.34 -5 71 C-5 71.99 -5 72.98 -5 74 C-5.382 74.134 -5.382 74.134 -7.312 74.812 C-9.89 75.951 -11.27 76.814 -13 79 C-13 79.66 -13 80.32 -13 81 C-11.35 81.66 -9.7 82.32 -8 83 C-9 86 -9 86 -11.363 87.316 C-11.85 87.522 -11.85 87.522 -14.312 88.562 C-15.278 88.976 -16.244 89.39 -17.238 89.816 C-18.15 90.207 -19.061 90.598 -20 91 C-20.736 91.38 -21.472 91.761 -22.23 92.152 C-24 93 -24 93 -26 93 C-26.165 93.495 -26.165 93.495 -27 96 C-32.859 100.352 -39.013 100.12 -46 100 C-46 99.01 -46 98.02 -46 97 C-48.312 94.5 -48.312 94.5 -51 92 C-51.536 91.423 -52.072 90.845 -52.625 90.25 C-55.883 87.288 -60.221 87.67 -64.363 87.719 C-69.758 88.294 -73.653 90.503 -77.25 94.5 C-77.827 95.325 -78.405 96.15 -79 97 C-82.062 100.349 -84.637 102.723 -89.262 103.266 C-95.086 103.228 -100.376 102.521 -106 101 C-106 100.34 -106 99.68 -106 99 C-106.875 99.052 -107.751 99.103 -108.652 99.156 C-114.255 98.895 -118.521 96.25 -123 93 C-124.577 91.037 -125.72 89.112 -126.895 86.891 C-129.126 83.074 -132.602 80.706 -136.516 78.73 C-139.657 76.542 -140.388 74.672 -141.75 71.125 C-141.954 70.611 -141.954 70.611 -142.984 68.008 C-144.64 63.103 -145.119 58.862 -145.062 53.688 C-145.053 52.619 -145.044 51.55 -145.035 50.449 C-145.024 49.641 -145.012 48.833 -145 48 C-144.758 48.175 -144.758 48.175 -143.531 49.059 C-138.623 52.39 -135.006 54.197 -129 54 C-125.272 51.569 -123.808 49.145 -122.75 44.938 C-122.116 41.198 -121.754 37.471 -121.453 33.691 C-121.41 33.157 -121.41 33.157 -121.192 30.451 C-121.129 29.642 -121.065 28.833 -121 28 C-120.265 28.091 -119.53 28.182 -118.772 28.275 C-115.39 28.69 -112.008 29.095 -108.625 29.5 C-107.469 29.643 -106.312 29.786 -105.121 29.934 C-89.399 31.799 -89.399 31.799 -85 31 C-84.34 30.01 -83.68 29.02 -83 28 C-82.34 28 -81.68 28 -81 28 C-80.67 27.34 -80.34 26.68 -80 26 C-79.01 25.34 -78.02 24.68 -77 24 C-75.875 27.75 -75.875 27.75 -77 30 C-76.536 30.041 -76.536 30.041 -74.188 30.25 C-71 32 -71 32 -70.074 34.523 C-69.597 36.64 -69.139 38.762 -68.699 40.887 C-67.073 48.126 -64.124 52.836 -58 57 C-49.672 60.874 -39.623 60.801 -31 58 C-21.679 54.355 -14.987 50.069 -10.504 40.961 C-7.393 33.716 -5.807 27.891 -5.75 20 C-5.729 19.288 -5.709 18.577 -5.688 17.844 C-5.655 13.478 -6.132 11.265 -9 8 C-9.188 4.75 -9.188 4.75 -9 2 C-7.545 1.611 -6.086 1.239 -4.625 0.875 C-4.219 0.771 -4.219 0.771 -2.164 0.242 C-1.45 0.162 -0.736 0.082 0 0 Z " fill="#CC2200" transform="translate(263,212)"/>
<path d="M0 0 C1 3 1 3 0.207 5.137 C-6.789 17.933 -15.964 29.457 -26 40 C-29.156 38.613 -31.199 36.996 -33.562 34.5 C-38.632 29.171 -38.632 29.171 -42.5 28.688 C-45.452 29.056 -46.095 29.823 -48 32 C-48.66 32 -49.32 32 -50 32 C-50.13 32.294 -50.13 32.294 -50.785 33.781 C-52.085 36.155 -53.478 37.646 -55.438 39.5 C-57.881 41.867 -60.079 44.175 -62 47 C-59.054 45.684 -57.109 44.307 -54.941 41.926 C-54.39 41.341 -53.839 40.757 -53.271 40.154 C-52.128 38.922 -50.993 37.682 -49.865 36.436 C-45.671 32.026 -45.671 32.026 -42.344 31.898 C-39.785 33.101 -38.009 34.389 -35.938 36.312 C-35.25 36.938 -34.563 37.563 -33.855 38.207 C-32.432 39.583 -31.075 41.028 -29.75 42.5 C-28 44 -28 44 -26.184 43.895 C-18.404 40.708 -11.887 29.406 -7.008 22.727 C-5.069 20.094 -3.059 17.539 -1 15 C-0.484 15.598 0.031 16.196 0.562 16.812 C3 19 3 19 6.5 20.5 C9.947 21.977 11.493 23.317 14 26 C13.729 26.29 13.729 26.29 12.355 27.758 C8.5 31.967 5.175 35.698 3 41 C4 40 4 40 5.348 38.145 C14.174 26.142 14.174 26.142 21.625 24.379 C25.497 23.923 28.271 23.757 32 25 C38.007 35.011 40.892 46.735 43.312 58.062 C43.398 58.461 43.398 58.461 43.832 60.478 C44.694 64.721 45.188 68.645 45 73 C44.064 72.678 43.128 72.355 42.164 72.023 C37.266 70.634 32.437 70.618 27.375 70.625 C26.89 70.624 26.89 70.624 24.434 70.621 C17.526 70.722 11.844 71.653 5.363 74.125 C3 75 3 75 0 75 C0 67.08 0 59.16 0 51 C-0.33 51.99 -0.33 51.99 -2 57 C-2.66 56.67 -3.32 56.34 -4 56 C-4.407 53.678 -4.744 51.343 -5 49 C-5.027 50.604 -5.046 52.208 -5.062 53.812 C-5.074 54.706 -5.086 55.599 -5.098 56.52 C-5 59 -5 59 -4 62 C-3.929 63.826 -3.916 65.654 -3.938 67.48 C-3.945 68.563 -3.953 69.645 -3.961 70.76 C-3.987 73.025 -4.013 75.291 -4.039 77.557 C-4.081 83.461 -4.11 89.187 -3 95 C-0.938 96.5 -0.938 96.5 1 97 C-0.602 98.602 -2.606 98.468 -4.763 98.8 C-15.026 100.381 -24.975 102.964 -34.996 105.663 C-36.119 105.963 -37.241 106.264 -38.398 106.574 C-38.902 106.711 -38.902 106.711 -41.451 107.405 C-44 108 -44 108 -47 108 C-48.289 106.461 -48.289 106.461 -49.625 104.375 C-53.826 98.451 -59.552 95.122 -66 92 C-64.716 88.53 -63.214 85.594 -61.145 82.531 C-60.875 82.122 -60.875 82.122 -59.51 80.051 C-58.375 78.345 -57.231 76.644 -56.08 74.949 C-55.812 74.54 -55.812 74.54 -54.457 72.469 C-54.209 72.1 -54.209 72.1 -52.956 70.232 C-51.733 67.376 -52.007 65.91 -53 63 C-55.346 61.098 -56.862 59.952 -59.938 60.082 C-63.038 61.462 -63.989 63.678 -65.688 66.562 C-66.773 68.386 -67.872 70.202 -69 72 C-69.33 72 -69.66 72 -70 72 C-69.159 51.614 -60.852 38.703 -46 25 C-37.622 18.153 -28.404 12.645 -18.188 9.125 C-11.629 6.779 -5.789 3.924 0 0 Z " fill="#FFFFFF" transform="translate(267,304)"/>
<path d="M0 0 C2.625 -0.562 2.625 -0.562 6 0 C8.395 2.774 10.165 5.838 12 9 C13.684 10.684 15.86 10.308 18.172 10.465 C18.7 10.504 18.7 10.504 21.375 10.701 C23.609 10.858 25.844 11.011 28.078 11.162 C29.14 11.241 30.203 11.321 31.297 11.402 C32.27 11.469 33.243 11.536 34.245 11.605 C37.882 12.126 40.96 12.638 43.27 15.664 C43.567 16.311 43.863 16.958 44.168 17.625 C44.504 18.331 44.84 19.038 45.186 19.766 C45.516 20.503 45.847 21.24 46.188 22 C46.865 23.46 47.546 24.918 48.23 26.375 C48.523 27.022 48.816 27.669 49.118 28.336 C50 30 50 30 52 32 C51.727 31.495 51.455 30.991 51.174 30.471 C49.945 28.191 48.722 25.908 47.5 23.625 C47.071 22.831 46.641 22.037 46.199 21.219 C45.793 20.458 45.387 19.698 44.969 18.914 C44.78 18.563 44.78 18.563 43.826 16.788 C43 15 43 15 43 13 C47.29 13 51.58 13 56 13 C57.073 8.706 56.797 7.805 55 4 C69.249 2.708 69.249 2.708 73.592 6.326 C76.88 10.425 78.909 15.217 81 20 C82.074 22.171 83.157 24.338 84.25 26.5 C84.718 27.467 85.186 28.434 85.668 29.43 C87.136 32.262 88.847 34.689 90.777 37.215 C92.808 40.179 94.265 43.421 95.789 46.668 C97 49 97 49 98.391 50.801 C100.725 53.99 102.376 57.464 104.125 61 C104.305 61.356 104.305 61.356 105.215 63.156 C105.559 63.847 105.903 64.538 106.258 65.25 C106.413 65.562 106.413 65.562 107.2 67.141 C108.031 69.072 108.546 70.951 109 73 C107 71 105 69 103 67 C103.508 67.837 104.016 68.673 104.539 69.535 C110.164 78.982 114.516 88.549 118 99 C118 97.68 118 96.36 118 95 C118.298 93.658 118.622 92.321 119 91 C120.152 92.913 121.296 94.831 122.438 96.75 C123.076 97.817 123.714 98.885 124.371 99.984 C125.695 102.435 126.533 104.29 127 107 C123.386 107.378 120.433 107.25 117 106 C113.932 102.395 112.1 98.219 110 94 C108.685 91.905 107.352 89.821 106 87.75 C99.719 77.56 95.521 66.586 91.438 55.375 C85.738 39.756 78.796 26.105 70 12 C70.34 12.681 70.681 13.361 71.031 14.062 C72.076 16.153 73.119 18.244 74.16 20.336 C75.396 22.811 76.657 25.272 77.934 27.727 C83.801 39.085 88.513 50.752 92.676 62.836 C96.373 73.459 100.95 82.539 107 92 C108.343 94.341 109.644 96.698 110.93 99.07 C112.23 101.415 113.611 103.707 115 106 C112.916 105.858 110.833 105.712 108.75 105.562 C108.17 105.522 108.17 105.522 105.234 105.316 C100.098 104.814 100.098 104.814 98 104 C95.791 100.268 94.183 96.436 92.508 92.438 C88.418 82.743 83.654 73.869 78 65 C77.578 64.335 77.156 63.671 76.721 62.986 C74.17 58.975 71.595 54.982 69 51 C71.632 56.605 74.52 61.94 77.812 67.188 C96 96.335 96 96.335 96 104 C91.546 103.772 87.095 103.529 82.645 103.246 C80.003 103.085 77.475 103.016 74.824 103.098 C72.205 103.126 70.416 103.021 68 102 C65.459 99.246 63.799 96.163 62.047 92.869 C59.915 89.064 57.454 85.457 55.062 81.812 C54.094 80.32 53.127 78.826 52.16 77.332 C51.447 76.232 50.734 75.133 50 74 C51.299 77.462 52.814 80.539 54.75 83.688 C55.275 84.547 55.799 85.407 56.34 86.293 C56.888 87.186 57.436 88.08 58 89 C59.106 90.832 60.211 92.665 61.312 94.5 C61.804 95.315 62.295 96.129 62.801 96.969 C63.579 98.287 64.315 99.631 65 101 C62.242 101.375 62.242 101.375 59 101 C56.883 98.375 56.883 98.375 55.125 95 C54.529 93.886 53.934 92.772 53.32 91.625 C52.885 90.759 52.449 89.892 52 89 C55.039 94.703 55.039 94.703 54.688 97.375 C54.461 97.911 54.234 98.447 54 99 C51.812 99.5 51.812 99.5 49 99 C46.825 96.59 45.162 94.033 44 91 C44.344 89.043 44.344 89.043 45 87 C46.565 73.606 40.274 61.87 33 51 C31.013 48.493 29.175 46.433 26.102 45.301 C22.989 43.374 21.722 40.462 20.062 37.312 C15.765 29.457 15.765 29.457 13.25 26.062 C11.352 23.479 9.723 20.899 8.18 18.094 C7.218 16.387 6.213 14.705 5.195 13.031 C4.553 11.969 3.911 10.907 3.25 9.812 C2.636 8.808 2.023 7.804 1.391 6.77 C0 4 0 4 0 0 Z " fill="#CC2200" transform="translate(70,355)"/>
<path d="M0 0 C1.764 6.656 3.34 13.14 4 20 C2.35 20.66 0.7 21.32 -1 22 C-1 22.66 -1 23.32 -1 24 C-11.474 29.059 -21.917 33.562 -33.062 36.938 C-33.988 37.219 -34.914 37.501 -35.867 37.791 C-42.187 39.64 -48.504 40.946 -55 42 C-55.999 42.164 -56.999 42.327 -58.029 42.496 C-80.998 46.189 -103.686 49.24 -127 49 C-127 41.41 -127 33.82 -127 26 C-123.078 25.216 -119.672 24.797 -115.715 24.605 C-115.096 24.572 -115.096 24.572 -111.962 24.405 C-111.307 24.37 -110.651 24.336 -109.976 24.3 C-74.706 22.359 -38.396 17.125 -6.531 1.066 C-4 0 -4 0 0 0 Z " fill="#FFD700" transform="translate(321,131)"/>
<path d="M0 0 C22.708 1.561 22.708 1.561 30.996 10.043 C38.633 20.39 38.149 34.702 37 47 C35.101 58.599 30.206 69.176 23.727 78.914 C22 80 22 80 18.727 79.914 C11.237 78.077 3.224 73.37 -1.312 67 C-1.869 66.01 -2.426 65.02 -3 64 C-3.495 64.165 -3.495 64.165 -6 65 C-6 64.01 -6 63.02 -6 62 C-5.34 62 -4.68 62 -4 62 C-3.938 60.762 -3.876 59.525 -3.812 58.25 C-3.372 54.126 -2.218 50.797 -0.562 47 C4.863 34.487 6.466 20.129 2 7 C1.629 6.072 1.257 5.144 0.875 4.188 C0 2 0 2 0 0 Z " fill="#CC2200" transform="translate(307,414)"/>
<path d="M0 0 C4.186 2.226 6.077 7.556 8.039 11.668 C10.044 21.147 9.308 30.929 4.285 39.328 C-2.599 48.895 -10.081 52.365 -21.527 54.473 C-22.434 54.62 -23.34 54.767 -24.273 54.918 C-23.978 54.343 -23.683 53.768 -23.379 53.176 C-19.893 46.055 -18.195 39.766 -20.273 31.918 C-22.355 27.282 -24.388 23.782 -29.273 21.918 C-33.798 21.222 -37.243 21.304 -41.211 23.668 C-44.391 27.137 -45.487 30.005 -45.898 34.668 C-45.973 35.467 -46.048 36.266 -46.125 37.09 C-46.174 37.693 -46.223 38.296 -46.273 38.918 C-46.933 38.588 -47.593 38.258 -48.273 37.918 C-51.074 29.236 -48.954 20.312 -46.273 11.918 C-45.194 11.771 -44.116 11.624 -43.004 11.473 C-30.136 9.594 -17.311 6.705 -5.473 1.168 C-2.273 -0.082 -2.273 -0.082 0 0 Z " fill="#FFFFFF" transform="translate(244.2734375,215.08203125)"/>
<path d="M0 0 C1.65 0 3.3 0 5 0 C6.748 5.244 7.194 9.473 7 15 C8.65 15 10.3 15 12 15 C12.049 14.336 12.098 13.672 12.148 12.988 C12.891 4.218 12.891 4.218 15 0 C15.825 0.165 15.825 0.165 20 1 C20.936 4.155 21.106 6.966 21.062 10.25 C21.053 11.142 21.044 12.034 21.035 12.953 C21.024 13.629 21.012 14.304 21 15 C21.969 14.979 22.939 14.959 23.938 14.938 C27 15 27 15 28 16 C28.228 21.332 28.101 26.665 28 32 C27.993 32.681 27.985 33.362 27.978 34.063 C27.95 35.959 27.882 37.855 27.812 39.75 C27.778 40.859 27.743 41.967 27.707 43.109 C26.769 46.945 25.305 47.937 22 50 C13.296 53.75 6.188 53.763 -2.57 50.363 C-5.988 48.445 -7.72 47.289 -10 44 C-10.672 39.446 -10.56 34.967 -10.438 30.375 C-10.432 29.135 -10.426 27.895 -10.42 26.617 C-10.295 17.443 -10.295 17.443 -8 14 C-5.375 13.812 -5.375 13.812 -3 14 C-3.062 12.989 -3.124 11.979 -3.188 10.938 C-2.974 6.445 -1.954 3.989 0 0 Z " fill="#1A1A1A" transform="translate(229,352)"/>
<path d="M0 0 C-0.66 0.66 -1.32 1.32 -2 2 C-2 3.32 -2 4.64 -2 6 C-0.02 6.66 1.96 7.32 4 8 C4 11.3 4 14.6 4 18 C8.491 17.592 10.972 15.729 14.352 12.961 C14.896 12.644 15.44 12.327 16 12 C19.482 13.161 20.016 14.069 22.062 17 C24.799 20.9 24.799 20.9 27 22 C25.879 20.039 24.753 18.082 23.625 16.125 C22.999 15.034 22.372 13.944 21.727 12.82 C20 10 20 10 18 8 C19.98 7.67 21.96 7.34 24 7 C24.349 7.987 24.699 8.975 25.059 9.992 C25.518 11.286 25.978 12.581 26.438 13.875 C26.668 14.526 26.898 15.177 27.135 15.848 C28.887 20.773 28.887 20.773 30 23 C29.567 23.763 29.134 24.526 28.688 25.312 C24.918 32.42 25.007 41.332 24.75 49.188 C24.307 55.909 22.685 61.034 18 66 C15.274 67.635 13.148 68.226 10 69 C9.01 69.33 8.02 69.66 7 70 C5.326 67.046 3.662 64.086 2 61.125 C1.523 60.283 1.046 59.441 0.555 58.574 C0.104 57.769 -0.348 56.963 -0.812 56.133 C-1.231 55.389 -1.65 54.646 -2.082 53.879 C-3 52 -3 52 -3 50 C-2.602 50.012 -2.602 50.012 -0.586 50.07 C9.938 50.25 9.938 50.25 15 48 C15.33 45.03 15.66 42.06 16 39 C8.08 38.01 0.16 37.02 -8 36 C-8 31.71 -8 27.42 -8 23 C-8.99 27.29 -9.98 31.58 -11 36 C-14 33 -14 33 -15.812 29.938 C-18.334 26.551 -19.957 25.919 -24 25 C-20.841 18.961 -17.463 13.184 -13 8 C-12.67 8 -12.34 8 -12 8 C-11.67 11.3 -11.34 14.6 -11 18 C-11.009 17.131 -11.018 16.262 -11.027 15.367 C-10.791 6.162 -10.791 6.162 -8.48 2.766 C-3.887 -1.296 -3.887 -1.296 0 0 Z " fill="#FFFFFF" transform="translate(170,326)"/>
<path d="M0 0 C2.038 1.274 4.039 2.611 6 4 C6 4.66 6 5.32 6 6 C6.593 6.262 7.186 6.523 7.797 6.793 C15.553 11.042 21.443 21.246 25 29 C26.011 33.729 26.142 38.178 26 43 C26.019 43.878 26.039 44.756 26.059 45.66 C25.849 54.715 22.723 65.254 18 73 C14.788 75.521 12.045 76.569 8 77 C7.34 76.34 6.68 75.68 6 75 C3.828 74.473 3.828 74.473 1.25 74.062 C-2.936 73.304 -6.286 72.15 -10 70 C-9.854 69.708 -9.854 69.708 -9.115 68.233 C1.389 47.199 8.145 27.582 1 4 C0.659 2.669 0.322 1.336 0 0 Z " fill="#CC2200" transform="translate(343,426)"/>
<path d="M0 0 C2.519 0.038 4.99 0.144 7.5 0.312 C8.203 0.348 8.905 0.383 9.629 0.42 C11.426 0.536 13.215 0.76 15 1 C17.199 5.398 15.38 12.359 15 17 C20.28 17.66 25.56 18.32 31 19 C30.67 24.61 30.34 30.22 30 36 C24.39 35.67 18.78 35.34 13 35 C13 39.95 13 44.9 13 50 C10.209 51.395 8.154 50.902 5.062 50.625 C4.532 50.58 4.532 50.58 1.848 50.352 C-1 50 -1 50 -4 49 C-3.67 43.72 -3.34 38.44 -3 33 C-6.613 32.772 -10.227 32.544 -13.84 32.316 C-17 32 -17 32 -18 31 C-18.099 28.877 -18.13 26.75 -18.125 24.625 C-18.128 23.462 -18.13 22.3 -18.133 21.102 C-18 18 -18 18 -17 15 C-12.05 15.33 -7.1 15.66 -2 16 C-1.563 8.563 -1.563 8.563 -1.432 6.217 C-1.111 1.111 -1.111 1.111 0 0 Z " fill="#1A1A1A" transform="translate(151,139)"/>
<path d="M0 0 C-0.405 0.049 -0.405 0.049 -2.457 0.297 C-16.058 2.134 -29.407 6.175 -38.688 16.938 C-39.451 17.948 -40.214 18.959 -41 20 C-40.536 19.515 -40.072 19.031 -39.594 18.531 C-34.781 13.862 -29.838 10.587 -23.875 7.625 C-23.541 7.458 -23.541 7.458 -21.85 6.615 C-11.97 1.875 -0.364 -0.531 10.262 3.121 C12.61 4.304 14.82 5.533 17 7 C14.016 7.995 11.813 8 8.708 7.883 C0.129 7.592 -6.968 8.753 -15 12 C-16.007 12.401 -17.014 12.802 -18.051 13.215 C-25.465 16.533 -30.791 21.081 -36.504 26.707 C-39 29 -39 29 -42 30 C-42.268 29.325 -42.536 28.649 -42.812 27.953 C-43.204 27.061 -43.596 26.169 -44 25.25 C-44.186 24.809 -44.186 24.809 -45.125 22.578 C-49.726 16.252 -58.865 14.543 -66 12.25 C-66.966 11.934 -67.931 11.618 -68.926 11.293 C-71.282 10.523 -73.64 9.759 -76 9 C-75 6 -75 6 -72.586 4.535 C-53.124 -4.391 -19.453 -12.969 0 0 Z " fill="#FFFFFF" transform="translate(250,57)"/>
<path d="M0 0 C11.277 -0.492 11.277 -0.492 16.254 3.266 C18.094 4.953 18.094 4.953 19.316 6.266 C19.16 6.573 19.16 6.573 18.371 8.129 C17.316 10.266 17.316 10.266 16.441 12.453 C15.316 14.266 15.316 14.266 13.191 15.016 C12.882 15.057 12.882 15.057 11.316 15.266 C11.316 14.606 11.316 13.946 11.316 13.266 C10.413 13.554 9.509 13.843 8.578 14.141 C7.399 14.512 6.219 14.883 5.004 15.266 C3.832 15.637 2.66 16.008 1.453 16.391 C-1.684 17.266 -1.684 17.266 -4.684 17.266 C-5.014 17.926 -5.344 18.586 -5.684 19.266 C-7.004 18.936 -8.324 18.606 -9.684 18.266 C-9.684 18.926 -9.684 19.586 -9.684 20.266 C-12.072 22.346 -13.82 23.277 -17.02 23.234 C-19.259 22.98 -21.466 22.667 -23.684 22.266 C-23.684 21.936 -23.684 21.606 -23.684 21.266 C-24.279 21.246 -24.874 21.226 -25.488 21.206 C-28.179 21.11 -30.868 21.001 -33.559 20.891 C-34.496 20.86 -35.433 20.829 -36.398 20.797 C-37.294 20.758 -38.19 20.72 -39.113 20.68 C-39.941 20.648 -40.768 20.617 -41.621 20.584 C-43.684 20.266 -43.684 20.266 -45.684 18.266 C-46.098 16.102 -46.098 16.102 -46.309 13.641 C-46.383 12.823 -46.458 12.006 -46.535 11.164 C-46.584 10.538 -46.633 9.911 -46.684 9.266 C-46.039 9.13 -45.395 8.994 -44.731 8.854 C-41.756 8.225 -38.782 7.589 -35.809 6.953 C-34.795 6.74 -33.782 6.526 -32.738 6.307 C-27.031 5.081 -21.46 3.685 -15.903 1.895 C-10.693 0.418 -5.369 0.387 0 0 Z " fill="#CC2200" transform="translate(270.68359375,405.734375)"/>
<path d="M0 0 C-0.062 3.25 -0.062 3.25 -1 7 C-6.502 10.938 -12.202 12.293 -18.75 13.688 C-19.676 13.9 -20.601 14.112 -21.555 14.33 C-28.015 15.756 -34.403 16.549 -41 17 C-38.312 14.748 -36.354 13.118 -33 12 C-33 11.34 -33 10.68 -33 10 C-33.514 10.237 -34.028 10.474 -34.557 10.719 C-36.91 11.799 -39.267 12.868 -41.625 13.938 C-42.433 14.311 -43.241 14.684 -44.074 15.068 C-51.314 18.335 -57.567 19.167 -65.438 19.125 C-65.8 19.127 -65.8 19.127 -67.635 19.137 C-72.16 19.129 -76.586 19.079 -81 18 C-82.777 16.004 -82.777 16.004 -83.938 13.562 C-84.338 12.759 -84.739 11.956 -85.152 11.129 C-86 9 -86 9 -86 7 C-85.12 6.963 -84.239 6.925 -83.332 6.887 C-82.171 6.821 -81.009 6.755 -79.812 6.688 C-78.664 6.629 -77.515 6.571 -76.332 6.512 C-73 6 -73 6 -70.535 4.406 C-67.057 2.477 -64.372 3.15 -60.625 3.812 C-42.489 6.456 -22.433 6.591 -4.953 0.586 C-3 0 -3 0 0 0 Z " fill="#FFD700" transform="translate(288,431)"/>
<path d="M0 0 C2.64 0.33 5.28 0.66 8 1 C10.009 1.073 12.021 1.109 14.031 1.098 C14.56 1.096 14.56 1.096 17.234 1.088 C18.312 1.08 19.39 1.071 20.5 1.062 C21.609 1.058 22.717 1.053 23.859 1.049 C26.573 1.037 29.286 1.019 32 1 C32 6.94 32 12.88 32 19 C18.983 25.508 18.983 25.508 12 25 C7.819 23.291 3.994 21.13 0 19 C0 12.73 0 6.46 0 0 Z " fill="#FFFFFF" transform="translate(222,378)"/>
<path d="M0 0 C6.672 -0.556 11.381 0.271 17 4 C19.5 6.125 19.5 6.125 21 8 C21 8.66 21 9.32 21 10 C21.619 10.227 22.238 10.454 22.875 10.688 C25.693 12.428 26.119 13.845 27 17 C27.375 19.5 27.375 19.5 27 22 C25 24.688 25 24.688 23 27 C23 27.66 23 28.32 23 29 C18.538 31.975 14.226 31.857 9 31 C4.314 27.175 2.842 22.955 2 17 C1.694 13.945 1.443 10.896 1.246 7.832 C1.014 5.155 0.58 2.621 0 0 Z " fill="#CC2200" transform="translate(192,400)"/>
<path d="M0 0 C1.466 4.154 1.074 8.646 1 13 C0.835 12.505 0.835 12.505 0 10 C-11.805 4.636 -27.627 4.524 -39.676 8.992 C-41.825 9.931 -43.918 10.922 -46 12 C-46.66 12.33 -47.32 12.66 -48 13 C-48.108 11.231 -48.186 9.459 -48.25 7.688 C-48.296 6.701 -48.343 5.715 -48.391 4.699 C-48 2 -48 2 -46.484 0.281 C-43.118 -1.455 -39.671 -2.358 -36 -3.188 C-35.621 -3.274 -35.621 -3.274 -33.705 -3.709 C-22.348 -6.141 -10.306 -6.128 0 0 Z " fill="#FFFFFF" transform="translate(315,382)"/>
<path d="M0 0 C3.492 0.222 6.926 0.863 10.375 1.438 C11.347 1.566 12.319 1.694 13.32 1.826 C20.285 3.014 20.285 3.014 22.309 5.805 C23.112 7.887 23.625 9.802 24 12 C24.125 12.682 24.25 13.365 24.379 14.068 C24.64 15.704 24.828 17.352 25 19 C24.34 19 23.68 19 23 19 C22.794 18.381 22.588 17.762 22.375 17.125 C20.452 14.153 18.334 13.87 15 13 C9.074 18.774 9.074 18.774 8.832 22.793 C8.797 28.918 8.855 34.234 11 40 C4.042 35.627 1.204 27.881 -0.623 20.159 C-1.269 16.459 -1.25 12.808 -1.188 9.062 C-1.187 8.296 -1.186 7.53 -1.186 6.74 C-1.141 1.141 -1.141 1.141 0 0 Z " fill="#FFFFFF" transform="translate(114,221)"/>
<path d="M0 0 C0.66 0 1.32 0 2 0 C5.929 14.709 5.514 26.537 1 41 C0.67 41.165 0.67 41.165 -1 42 C-1.66 41.01 -2.32 40.02 -3 39 C-3.495 39.165 -3.495 39.165 -6 40 C-6 40.99 -6 41.98 -6 43 C-6.66 43 -7.32 43 -8 43 C-7.67 43.99 -7.34 44.98 -7 46 C-8.938 45.375 -8.938 45.375 -11 44 C-11.625 41.25 -11.625 41.25 -12 38 C-12.371 36.989 -12.743 35.979 -13.125 34.938 C-14.107 31.641 -14.442 30.139 -13 27 C-9.562 25.125 -9.562 25.125 -6 24 C-5.34 24.33 -4.68 24.66 -4 25 C-4.072 24.42 -4.144 23.84 -4.219 23.242 C-5.302 14.126 -5.302 14.126 -5 10 C-4.34 9.34 -3.68 8.68 -3 8 C-2.658 6.335 -2.326 4.668 -2 3 C-1.34 2.01 -0.68 1.02 0 0 Z " fill="#CC2200" transform="translate(304,419)"/>
<path d="M0 0 C1 3 1 3 -0.625 6.438 C-2.614 9.72 -4.956 11.658 -8 14 C-9.012 15.659 -10.013 17.326 -11 19 C-14.423 22.098 -18.49 23.584 -22.75 25.188 C-23.428 25.46 -24.106 25.733 -24.805 26.014 C-29.738 27.885 -33.724 28.391 -39 28 C-41.5 26.5 -41.5 26.5 -43 25 C-42.495 24.662 -41.989 24.325 -41.469 23.977 C-40.819 23.531 -40.169 23.085 -39.5 22.625 C-38.85 22.184 -38.201 21.743 -37.531 21.289 C-37.026 20.864 -36.521 20.438 -36 20 C-36 19.34 -36 18.68 -36 18 C-30.803 13.421 -25.303 11.591 -18.797 9.398 C-4.288 4.288 -4.288 4.288 0 0 Z " fill="#FFD700" transform="translate(267,304)"/>
<path d="M0 0 C1.751 0.453 3.501 0.913 5.25 1.375 C5.737 1.503 5.737 1.503 8.203 2.148 C10.658 2.896 12.756 3.771 15 5 C14.859 7.938 14.713 10.875 14.562 13.812 C14.523 14.646 14.484 15.479 14.443 16.338 C14.401 17.14 14.36 17.943 14.316 18.77 C14.28 19.508 14.243 20.246 14.205 21.007 C14 23 14 23 13 26 C6.185 25.704 1.616 22.695 -4 19 C-3.858 16.916 -3.712 14.833 -3.562 12.75 C-3.481 11.59 -3.4 10.43 -3.316 9.234 C-3.068 6.69 -2.719 4.44 -2 2 C-1.34 2 -0.68 2 0 2 C0 1.34 0 0.68 0 0 Z " fill="#FFD700" transform="translate(110,145)"/>
<path d="M0 0 C3.63 0.33 7.26 0.66 11 1 C11.424 2.111 11.848 3.222 12.285 4.367 C15.262 11.986 18.181 18.96 23.16 25.52 C25.413 28.557 27.398 31.717 29.375 34.938 C30.043 36.019 30.71 37.101 31.398 38.215 C33 41 33 41 34 44 C33.031 43.835 32.061 43.67 31.062 43.5 C28 43 28 43 27 43 C26.34 43 25.68 43 25 43 C23.512 40.895 23.512 40.895 21.688 37.812 C20.979 36.63 20.269 35.447 19.559 34.266 C19.16 33.599 18.762 32.931 18.351 32.244 C15.691 27.826 12.966 23.447 10.25 19.062 C9.695 18.163 9.141 17.264 8.569 16.337 C6.316 12.691 4.07 9.069 1.609 5.559 C0 3 0 3 0 0 Z " fill="#CC2200" transform="translate(57,354)"/>
<path d="M0 0 C3.066 0 5.156 0.023 8 1 C12.314 6.946 13.197 13.872 14.581 20.976 C15.032 23.155 15.545 25.312 16.074 27.473 C16.259 28.226 16.443 28.978 16.633 29.754 C16.994 31.217 17.36 32.678 17.73 34.138 C18.717 38.18 19.188 41.842 19 46 C16.03 45.67 13.06 45.34 10 45 C9.895 44.295 9.789 43.59 9.68 42.864 C9.19 39.616 8.689 36.371 8.188 33.125 C8.022 32.016 7.856 30.908 7.686 29.766 C5.168 13.613 5.168 13.613 1.312 7.188 C-0.241 4.599 -0.254 2.967 0 0 Z " fill="#FFD700" transform="translate(291,328)"/>
<path d="M0 0 C0.027 2.104 0.046 4.208 0.062 6.312 C0.074 7.484 0.086 8.656 0.098 9.863 C0 13 0 13 -1 16 C-2.715 16.992 -2.715 16.992 -4.938 17.875 C-8.438 19.306 -11.693 20.918 -15 22.75 C-19.918 25.271 -23.533 25.441 -29 25 C-28.625 24.564 -28.25 24.129 -27.863 23.68 C-26.79 22.431 -25.72 21.179 -24.652 19.926 C-23.247 18.287 -21.814 16.672 -20.375 15.062 C-18.399 12.515 -17.407 10.756 -16.188 7.875 C-14.311 3.909 -12.106 2.43 -8.195 0.594 C-5.415 -0.158 -2.866 -0.098 0 0 Z " fill="#CC2200" transform="translate(204,303)"/>
<path d="M0 0 C5.42 5.42 6.213 16.36 6.277 23.773 C6.239 26.853 6.146 29.923 6 33 C3.36 33.66 0.72 34.32 -2 35 C-1.67 36.32 -1.34 37.64 -1 39 C-1.763 39.433 -2.526 39.866 -3.312 40.312 C-6 42 -6 42 -7.562 43.625 C-9.298 45.285 -10.665 45.597 -13 46 C-12.67 44.68 -12.34 43.36 -12 42 C-11.34 42 -10.68 42 -10 42 C-9.711 41.237 -9.423 40.474 -9.125 39.688 C-8 37 -8 37 -6 34 C-6.66 34 -7.32 34 -8 34 C-7.818 33.466 -7.636 32.933 -7.449 32.383 C-6.914 30.796 -6.386 29.208 -5.863 27.617 C-5.314 25.951 -4.75 24.288 -4.168 22.633 C-2.177 16.649 -1.523 10.981 -1.211 4.688 C-1 2 -1 2 0 0 Z " fill="#CC2200" transform="translate(372,466)"/>
<path d="M0 0 C0.33 0.33 0.66 0.66 1 1 C0.991 4.239 0.867 7.467 0.742 10.703 C1 14 1 14 2.582 16.637 C4 19 4 19 3.707 21.316 C3.412 22.058 3.117 22.799 2.812 23.562 C2.53 24.306 2.248 25.05 1.957 25.816 C1.037 27.916 0.049 29.962 -1 32 C-7.751 26.169 -7.503 15.654 -8.23 7.379 C-8.312 5.25 -8.312 5.25 -8 2 C-4.778 -0.148 -3.722 -0.294 0 0 Z " fill="#CC2200" transform="translate(296,215)"/>
<path d="M0 0 C0.66 0.33 1.32 0.66 2 1 C1.681 1.332 1.681 1.332 0.066 3.012 C-0.76 3.895 -1.586 4.778 -2.438 5.688 C-3.261 6.558 -4.085 7.428 -4.934 8.324 C-7.094 11.121 -7.36 12.632 -8 16 C-9.672 17.695 -9.672 17.695 -11.75 19.125 C-12.471 19.633 -13.191 20.141 -13.934 20.664 C-16 22 -16 22 -18.812 23.5 C-21.716 25.491 -22.503 27.87 -24 31 C-24.99 31.33 -25.98 31.66 -27 32 C-27.33 32.66 -27.66 33.32 -28 34 C-28.587 34.142 -29.173 34.284 -29.777 34.43 C-33.343 35.345 -35.941 37.67 -38.879 39.82 C-39.229 40.015 -39.229 40.015 -41 41 C-41.99 40.67 -42.98 40.34 -44 40 C-42.625 38 -42.625 38 -41 36 C-40.34 36 -39.68 36 -39 36 C-39 35.34 -39 34.68 -39 34 C-37.012 32.346 -35.01 30.792 -32.938 29.25 C-25.366 23.473 -18.511 17.075 -11.617 10.52 C-8.95 8.014 -6.196 5.614 -3.418 3.234 C-2.235 2.204 -1.109 1.109 0 0 Z " fill="#CC2200" transform="translate(80,90)"/>
<path d="M0 0 C3.079 0.228 4.326 1.267 6.75 3.25 C10.517 7.999 9.5 14.289 9 20 C8.678 21.669 8.347 23.336 8 25 C8 25.99 8 26.98 8 28 C5.146 27.366 3.443 26.675 1.812 24.191 C-0.644 19.269 -2.15 15.119 -2.188 9.562 C-2.202 8.615 -2.216 7.668 -2.23 6.691 C-1.996 3.955 -1.397 2.336 0 0 Z " fill="#CC2200" transform="translate(125,295)"/>
<path d="M0 0 C0.372 0.022 0.372 0.022 2.257 0.132 C3.833 0.225 5.409 0.321 6.985 0.419 C9.397 0.569 11.809 0.709 14.221 0.848 C15.751 0.939 17.282 1.032 18.812 1.125 C19.173 1.146 19.173 1.146 21 1.251 C24.03 1.446 26.577 1.73 29.473 2.695 C29.638 3.85 29.638 3.85 30.473 9.695 C25.853 9.53 25.853 9.53 2.473 8.695 C2.143 8.035 1.813 7.375 1.473 6.695 C2.258 6.707 3.043 6.719 3.852 6.73 C9.51 6.779 14.901 6.708 20.473 5.695 C14.736 4.421 5.891 2.986 0.473 5.695 C0.143 6.685 -0.187 7.675 -0.527 8.695 C-2.177 9.025 -3.827 9.355 -5.527 9.695 C-9.527 4.07 -9.527 4.07 -9.527 0.695 C-6.461 -0.838 -3.34 -0.211 0 0 Z " fill="#FFFFFF" transform="translate(88.52734375,350.3046875)"/>
<path d="M0 0 C2.713 2.386 4.798 5.149 7 8 C9.654 11.42 12.532 11.824 16.688 12.688 C17.867 12.939 19.046 13.19 20.262 13.449 C21.165 13.631 22.069 13.813 23 14 C22.67 14.66 22.34 15.32 22 16 C21.34 15.67 20.68 15.34 20 15 C11.817 13.759 3.472 13.681 -4.785 13.395 C-9.604 13.209 -14.259 12.967 -19 12 C-19 11.67 -19 11.34 -19 11 C-16.949 10.772 -14.898 10.544 -12.848 10.316 C-11 10 -11 10 -10 9 C-9.72 6.941 -9.553 4.883 -9.379 2.812 C-9.254 2.214 -9.129 1.616 -9 1 C-5.707 -0.646 -3.648 -0.538 0 0 Z " fill="#AAAAAA" transform="translate(100,335)"/>
<path d="M0 0 C5.153 0.515 8.86 3.097 13.125 5.812 C13.84 6.251 14.556 6.69 15.293 7.143 C18.869 9.392 21.773 11.297 24 15 C22.014 15.488 20.029 15.977 18.043 16.465 C16.343 16.91 14.667 17.444 13 18 C10.477 16.453 10.477 16.453 7.625 14.25 C4.175 11.608 0.77 9.166 -3 7 C-1.125 2.25 -1.125 2.25 0 0 Z " fill="#FFD700" transform="translate(270,311)"/>
<path d="M0 0 C0.235 6.583 0.059 12.654 -3.5 18.438 C-5 20 -5 20 -7 21 C-7.072 20.68 -7.072 20.68 -7.438 19.062 C-8 17 -8 17 -9 16 C-9.041 13.667 -9.042 11.333 -9 9 C-12.96 8.67 -16.92 8.34 -21 8 C-20.67 6.68 -20.34 5.36 -20 4 C-19.34 3.876 -18.68 3.752 -18 3.625 C-8.092 1.561 -8.092 1.561 -4.688 -0.188 C-3 -1 -3 -1 0 0 Z " fill="#CC2200" transform="translate(308,200)"/>
<path d="M0 0 C6.286 2.008 12.396 4.31 18.5 6.812 C26.965 10.243 35.5 13.373 44.133 16.351 C48.44 17.849 52.719 19.428 57 21 C53.815 22.022 51.713 21.943 48.473 21.18 C47.604 20.976 46.735 20.773 45.84 20.563 C44.923 20.336 44.007 20.109 43.062 19.875 C42.593 19.762 42.593 19.762 40.219 19.191 C33.732 17.577 27.698 15.561 21.594 12.82 C18.602 11.874 17.009 12.356 14 13 C11.438 10.812 11.438 10.812 9 8 C6.207 5.032 3.517 3.052 0 1 C0 0.67 0 0.34 0 0 Z " fill="#CC2200" transform="translate(137,56)"/>
<path d="M0 0 C7.26 0.66 14.52 1.32 22 2 C22 4.31 22 6.62 22 9 C15.883 11.447 10.758 12.124 4.625 9.625 C2 8 2 8 0 6 C0 4.02 0 2.04 0 0 Z " fill="#FFFFFF" transform="translate(162,364)"/>
<path d="M0 0 C1.226 -0.005 2.452 -0.01 3.715 -0.016 C8.768 0.385 8.768 0.385 11.062 2.25 C11.672 4.633 11.672 4.633 11.812 7.375 C11.869 8.285 11.926 9.195 11.984 10.133 C12.01 10.831 12.036 11.53 12.062 12.25 C13.053 11.92 14.043 11.59 15.062 11.25 C16.062 13.25 16.062 13.25 15.25 15.812 C14.062 18.25 14.062 18.25 12.062 19.25 C11.815 18.301 11.567 17.353 11.312 16.375 C10.062 13.25 10.062 13.25 8.375 12.125 C7.612 11.836 6.849 11.548 6.062 11.25 C5.526 10.92 5.526 10.92 2.812 9.25 C0.128 7.675 -2.271 6.836 -5.312 6.188 C-6.509 5.878 -7.705 5.569 -8.938 5.25 C-9.267 4.26 -9.598 3.27 -9.938 2.25 C-6.27 -0.195 -4.363 -0.018 0 0 Z " fill="#CC2200" transform="translate(284.9375,395.75)"/>
<path d="M0 0 C1.479 -0.027 2.958 -0.046 4.438 -0.062 C5.261 -0.074 6.085 -0.086 6.934 -0.098 C9 0 9 0 10 1 C10.041 3 10.043 5 10 7 C10.99 6.67 11.98 6.34 13 6 C13.33 4.02 13.66 2.04 14 0 C16.64 0 19.28 0 22 0 C22 2.64 22 5.28 22 8 C19.148 8.814 16.634 9.119 13.672 9.098 C12.873 9.094 12.073 9.091 11.25 9.088 C10.425 9.08 9.6 9.071 8.75 9.062 C7.91 9.058 7.069 9.053 6.203 9.049 C4.135 9.037 2.068 9.019 0 9 C-1.534 5.931 -0.55 3.299 0 0 Z " fill="#AAAAAA" transform="translate(232,369)"/>
<path d="M0 0 C0.66 0 1.32 0 2 0 C2.438 0.935 2.877 1.869 3.328 2.832 C9.275 15.242 16.519 26.676 24.078 38.156 C27.345 43.159 30.283 48.245 33 53.562 C33.316 54.171 33.631 54.78 33.956 55.407 C34.702 56.908 35.36 58.452 36 60 C35.835 60.33 35.835 60.33 35 62 C30.666 55.816 26.824 49.38 23.03 42.858 C20.349 38.258 17.595 33.714 14.779 29.195 C10.673 22.594 6.794 15.954 3.312 9 C3.143 8.662 3.143 8.662 2.285 6.949 C0 2.271 0 2.271 0 0 Z " fill="#1A1A1A" transform="translate(92,368)"/>
<path d="M0 0 C2.478 3.01 3.831 5.857 5.188 9.5 C8.314 17.217 12.85 23.749 17.789 30.414 C22.803 37.26 26.503 44.541 30.134 52.182 C30.884 53.757 31.655 55.323 32.43 56.887 C32.804 57.667 33.177 58.446 33.562 59.25 C33.873 59.895 34.184 60.539 34.504 61.203 C35.124 63.448 34.622 64.79 34 67 C33.466 65.814 32.933 64.628 32.383 63.406 C27.021 51.683 20.901 40.89 13.779 30.161 C-0.607 8.488 -0.607 8.488 0 0 Z " fill="#1A1A1A" transform="translate(130,373)"/>
<path d="M0 0 C5.854 2.897 10.492 7.905 14.297 13.137 C13.967 13.302 13.967 13.302 12.297 14.137 C10.557 13.028 8.83 11.9 7.109 10.762 C1.667 7.853 1.667 7.853 -1.703 8.551 C-5.209 9.874 -8.405 11.627 -11.648 13.492 C-12.656 14.035 -13.665 14.578 -14.703 15.137 C-15.363 14.807 -16.023 14.477 -16.703 14.137 C-14.499 11.758 -12.261 9.414 -10.016 7.074 C-9.39 6.398 -8.764 5.722 -8.119 5.025 C-3.414 0.173 -3.414 0.173 0 0 Z " fill="#FFD700" transform="translate(224.703125,335.86328125)"/>
<path d="M0 0 C0.33 0 0.66 0 1 0 C2.23 9.289 3.204 18.497 3.25 27.875 C3.259 28.629 3.268 29.383 3.277 30.16 C3.247 35.793 2.044 38.435 -1 43 C-0.67 43 -0.34 43 0 43 C-0.33 45.31 -0.66 47.62 -1 50 C-3 48 -3 48 -3.25 44.75 C-3 41 -3 41 -1.994 38.233 C-0.845 34.497 -0.789 31.425 -0.84 27.52 C-0.845 26.825 -0.85 26.13 -0.856 25.414 C-0.873 23.214 -0.904 21.013 -0.938 18.812 C-0.965 16.601 -0.99 14.39 -1.009 12.178 C-1.026 10.18 -1.054 8.181 -1.082 6.183 C-1 3 -1 3 0 0 Z " fill="#FFD700" transform="translate(162,514)"/>
<path d="M0 0 C4.832 -0.345 7.951 0.269 12 3 C13.608 7.019 13.073 11.717 13 16 C12.67 15.01 12.34 14.02 12 13 C9.496 12.051 9.496 12.051 6.438 11.312 C5.426 11.061 4.414 10.81 3.371 10.551 C2.589 10.369 1.806 10.187 1 10 C1 9.34 1 8.68 1 8 C0.34 8 -0.32 8 -1 8 C-0.67 5.36 -0.34 2.72 0 0 Z " fill="#FFD700" transform="translate(303,379)"/>
<path d="M0 0 C0 3 0 3 -1 6 C-1.06 8.179 -1.06 10.36 -1.027 12.539 C-1.015 13.842 -1.003 15.146 -0.99 16.488 C-0.966 18.548 -0.938 20.608 -0.904 22.668 C-0.785 30.441 -0.887 37.493 -3 45 C-3.33 45 -3.66 45 -4 45 C-4.787 35.998 -5.264 27.036 -5.375 18 C-5.412 16.813 -5.45 15.626 -5.488 14.402 C-5.574 5.968 -5.574 5.968 -3.86 3.078 C-2.477 1.688 -2.477 1.688 0 0 Z " fill="#FFD700" transform="translate(164,472)"/>
<path d="M0 0 C2.318 3.477 2.191 4.734 2.062 8.812 C1.971 11.955 1.965 14.792 2.492 17.895 C3.094 21.573 3.109 25.162 3.062 28.875 C3.058 29.563 3.053 30.252 3.049 30.961 C3.037 32.641 3.019 34.32 3 36 C0.625 36.625 0.625 36.625 -2 37 C-2.66 36.34 -3.32 35.68 -4 35 C-3.67 34.01 -3.34 33.02 -3 32 C-1.216 21.382 -0.5 10.742 0 0 Z " fill="#FFD700" transform="translate(260,364)"/>
<path d="M0 0 C4.875 3.75 4.875 3.75 6 6 C5.432 6.364 4.863 6.727 4.277 7.102 C-2.865 11.752 -9.072 16.892 -15 23 C-14.435 18.971 -12.362 16.777 -9.75 13.75 C-6.041 9.343 -2.905 4.966 0 0 Z " fill="#FFD700" transform="translate(265,319)"/>
<path d="M0 0 C2.581 2.581 3.23 5.007 4.5 8.438 C7.327 15.884 10.938 22.8 14.836 29.74 C15.26 30.512 15.684 31.283 16.121 32.078 C16.314 32.421 16.314 32.421 17.291 34.153 C18 36 18 36 17 39 C10.675 30.38 6.578 21.999 3 12 C2.658 11.06 2.317 10.121 1.965 9.152 C0.863 5.999 0 3.362 0 0 Z " fill="#1A1A1A" transform="translate(137,416)"/>
<path d="M0 0 C0.66 0 1.32 0 2 0 C3.141 3.422 3.098 6.087 3.062 9.688 C3.053 10.867 3.044 12.046 3.035 13.262 C3.024 14.165 3.012 15.069 3 16 C1.713 16.697 0.421 17.382 -0.875 18.062 C-1.235 18.254 -1.235 18.254 -3.055 19.223 C-3.697 19.479 -4.339 19.736 -5 20 C-5.66 19.67 -6.32 19.34 -7 19 C-6.196 18.237 -5.391 17.474 -4.562 16.688 C-1.355 12.92 -1.324 9.191 -1.141 4.391 C-1 2 -1 2 0 0 Z " fill="#FFD700" transform="translate(251,381)"/>
<path d="M0 0 C0.66 0.33 1.32 0.66 2 1 C1.216 1.619 0.433 2.238 -0.375 2.875 C-3 5 -3 5 -5 7 C-4.67 7.66 -4.34 8.32 -4 9 C-4.743 9.289 -5.485 9.577 -6.25 9.875 C-7.157 10.246 -8.065 10.618 -9 11 C-9.722 11.289 -10.444 11.577 -11.188 11.875 C-13 13 -13 13 -13.887 14.836 C-15.153 17.297 -16.636 18.835 -18.625 20.75 C-18.941 21.057 -18.941 21.057 -20.539 22.609 C-21.021 23.068 -21.503 23.527 -22 24 C-22.66 23.67 -23.32 23.34 -24 23 C-16.694 14.096 -9.8 6.215 0 0 Z " fill="#FFFFFF" transform="translate(230,323)"/>
<path d="M0 0 C-7.47 4.98 -16.324 4.49 -25 4 C-25.66 3.67 -26.32 3.34 -27 3 C-27 2.34 -27 1.68 -27 1 C-17.982 -0.07 -9.063 -0.102 0 0 Z " fill="#FFFFFF" transform="translate(241,440)"/>
<path d="M0 0 C2 3.75 2 3.75 2 6 C3.32 6.66 4.64 7.32 6 8 C3.871 10.129 -0.314 10.01 -3.25 10.5 C-4.776 10.76 -6.302 11.02 -7.828 11.281 C-8.548 11.404 -9.268 11.526 -10.01 11.652 C-12.349 12.061 -14.676 12.517 -17 13 C-16 10 -16 10 -14.258 8.902 C-13.554 8.584 -12.85 8.266 -12.125 7.938 C-9.538 6.749 -7.393 5.595 -5 4 C-4.67 4.99 -4.34 5.98 -4 7 C-2.35 7 -0.7 7 1 7 C0.67 4.69 0.34 2.38 0 0 Z " fill="#FFFFFF" transform="translate(262,393)"/>
<path d="M0 0 C0.99 0.99 1.98 1.98 3 3 C2.423 3.759 1.845 4.519 1.25 5.301 C0.507 6.295 -0.235 7.289 -1 8.312 C-1.743 9.299 -2.485 10.285 -3.25 11.301 C-5 14 -5 14 -5 17 C-7.31 17.66 -9.62 18.32 -12 19 C-8.831 12.003 -4.629 6.112 0 0 Z " fill="#FFD700" transform="translate(201,378)"/>
<path d="M0 0 C0.66 0 1.32 0 2 0 C2.508 0.955 3.016 1.91 3.539 2.895 C6.77 8.965 10.006 15.032 13.312 21.062 C14.209 22.708 15.105 24.354 16 26 C16.353 26.639 16.706 27.279 17.07 27.938 C17.938 29.562 17.938 29.562 19 32 C18.67 32.66 18.34 33.32 18 34 C13.292 27.3 9.375 20.335 5.625 13.062 C5.352 12.543 5.352 12.543 3.973 9.912 C0 2.261 0 2.261 0 0 Z " fill="#1A1A1A" transform="translate(98,368)"/>
<path d="M0 0 C2.375 0.188 2.375 0.188 5 1 C6.5 3.312 6.5 3.312 7 6 C5.625 8.312 5.625 8.312 4 10 C-0.554 9.521 -0.554 9.521 -2.5 7.25 C-3 5 -3 5 -1.625 2.25 C-1.089 1.507 -0.553 0.765 0 0 Z " fill="#FFFFFF" transform="translate(204,243)"/>
<path d="M0 0 C9.06 -0.122 17.977 0.161 27 1 C27 1.33 27 1.66 27 2 C18.596 3.255 10.513 4.306 2 4 C1.01 4 0.02 4 -1 4 C-0.67 2.68 -0.34 1.36 0 0 Z " fill="#1178BB" transform="translate(89,354)"/>
</svg>
